{"title":"Caprica.S01E16.PDTV.XviD-YooX-[tracker.BTARENA.org].avi","uid":5963530,"size":367815099,"categoryP":"video","categoryS":"tv_shows","magnet":"?xt=urn:btih:d35980c9b098a415dc499ba6e27d129a6d375efe&amp;dn=Caprica.S01E16.PDTV.XviD-YooX-%5Btracker.BTARENA.org%5D.avi&amp;tr=udp%3A%2F%2Ftracker.openbittorrent.com%3A80&amp;tr=udp%3A%2F%2Fopen.demonii.com%3A1337&amp;tr=udp%3A%2F%2Ftracker.coppersurfer.tk%3A6969&amp;tr=udp%3A%2F%2Fexodus.desync.com%3A6969","seeders":1,"leechers":0,"uploader":"AiTB","files":2,"time":1290031379,"description":" &lt;a href=&quot;http://www.btarena.org/tv/caprica-s01e16-pdtv-xvid-yoox&quot; rel=&quot;nofollow&quot; target=&quot;_NEW&quot;&gt;http://www.btarena.org/tv/caprica-s01e16-pdtv-xvid-yoox&lt;/a&gt;\n\n\nVideo\nID                               : 0\nFormat                           : MPEG-4 Visual\nFormat profile                   : Advanced Simple@L5\nFormat settings, BVOP            : Yes\nFormat settings, QPel            : No\nFormat settings, GMC             : No warppoints\nFormat settings, Matrix          : Default (H.263)\nMuxing mode                      : Packed bitstream\nCodec ID                         : XVID\nCodec ID/Hint                    : XviD\nDuration                         : 43mn 12s\nBit rate                         : 997 Kbps\nWidth                            : 624 pixels\nHeight                           : 352 pixels\nDisplay aspect ratio             : 16:9\nFrame rate                       : 23.976 fps\nColor space                      : YUV\nChroma subsampling               : 4:2:0\nBit depth                        : 8 bits\nScan type                        : Progressive\nBits/(Pixel*Frame)               : 0.189\nStream size                      : 308 MiB (88%)\nWriting library                  : XviD 1.2.1 (UTC 2008-12-04)\n\nAudio\nID                               : 1\nFormat                           : MPEG Audio\nFormat version                   : Version 1\nFormat profile                   : Layer 3\nMode                             : Joint stereo\nMode extension                   : MS Stereo\nCodec ID                         : 55\nCodec ID/Hint                    : MP3\nDuration                         : 43mn 12s\nBit rate mode                    : Constant\nBit rate                         : 128 Kbps\nChannel(s)                       : 2 channels\nSampling rate                    : 48.0 KHz\nStream size                      : 39.6 MiB (11%)\nAlignment                        : Split accross interleaves\nInterleave, duration             : 42 ms (1.00 video frame)\nInterleave, preload duration     : 500 ms\nWriting library                  : LAME3.98r\nEncoding settings                : -m j -V 4 -q 2 -lowpass 17 -b 128\n","torrent":{"xt":"urn:btih:d35980c9b098a415dc499ba6e27d129a6d375efe","amp;dn":"Caprica.S01E16.PDTV.XviD-YooX-%5Btracker.BTARENA.org%5D.avi","amp;tr":["udp%3A%2F%2Ftracker.openbittorrent.com%3A80","udp%3A%2F%2Fopen.demonii.com%3A1337","udp%3A%2F%2Ftracker.coppersurfer.tk%3A6969","udp%3A%2F%2Fexodus.desync.com%3A6969"],"infoHash":"d35980c9b098a415dc499ba6e27d129a6d375efe","infoHashBuffer":{"type":"Buffer","data":[211,89,128,201,176,152,164,21,220,73,155,166,226,125,18,154,109,55,94,254]},"announce":[],"urlList":[]}}